<svg xmlns="http://www.w3.org/2000/svg" width="29" height="30" viewBox="0 0 29 30">
    <g fill="none" fill-rule="evenodd">
        <g fill="#C39" fill-rule="nonzero">
            <g>
                <g>
                    <path d="M12.88 19.5h2.861v3H12.88v-3m0-12h2.862v9H12.88v-9M14.31 0C6.397 0 0 6.75 0 15c0 3.978 1.508 7.794 4.191 10.607C6.875 28.42 10.515 30 14.311 30c7.903 0 14.31-6.716 14.31-15 0-3.978-1.508-7.794-4.192-10.607C21.746 1.58 18.106 0 14.31 0m0 27C7.988 27 2.862 21.627 2.862 15S7.988 3 14.31 3c3.037 0 5.949 1.264 8.095 3.515 2.147 2.25 3.354 5.302 3.354 8.485 0 6.627-5.126 12-11.449 12z" transform="translate(-246 -941) translate(222 917) translate(24 24)"/>
                </g>
            </g>
        </g>
    </g>
</svg>
