<svg xmlns="http://www.w3.org/2000/svg" width="30" height="30" viewBox="0 0 30 30">
    <g fill="none" fill-rule="evenodd">
        <g fill="#E65765" fill-rule="nonzero">
            <g>
                <g>
                    <path d="M13.5 19.5h3v3h-3v-3m0-12h3v9h-3v-9M15 0C6.705 0 0 6.75 0 15c0 3.978 1.58 7.794 4.393 10.607C7.206 28.42 11.022 30 15 30c8.284 0 15-6.716 15-15 0-3.978-1.58-7.794-4.393-10.607C22.794 1.58 18.978 0 15 0m0 27C8.373 27 3 21.627 3 15S8.373 3 15 3c3.183 0 6.235 1.264 8.485 3.515C25.735 8.765 27 11.817 27 15c0 6.627-5.373 12-12 12z" transform="translate(-222 -910) translate(198 886) translate(24 24)"/>
                </g>
            </g>
        </g>
    </g>
</svg>
