<svg xmlns="http://www.w3.org/2000/svg" width="30" height="26" viewBox="0 0 30 26">
    <g fill="none" fill-rule="evenodd">
        <g fill="#2DA4DF" fill-rule="nonzero">
            <g>
                <path d="M15.294 6.118H3.06C1.369 6.118 0 7.488 0 9.176v6.118c0 1.69 1.37 3.059 3.059 3.059h1.53v6.118c0 .844.684 1.529 1.529 1.529h3.058c.845 0 1.53-.685 1.53-1.53v-6.117h4.588l7.647 6.118V0l-7.647 6.118m4.588 11.623l-3.058-2.447H3.059V9.176h13.765l3.058-2.447v11.012m9.942-5.506c0 2.616-1.469 4.986-3.824 6.118V6.118c2.34 1.147 3.824 3.517 3.824 6.117z" transform="translate(-222 -1163) translate(222 1163)"/>
            </g>
        </g>
    </g>
</svg>
