<svg xmlns="http://www.w3.org/2000/svg" width="35" height="25" viewBox="0 0 35 25">
    <path fill="#00B7C4" d="M29.12 11.16c.215-.56.335-1.173.335-1.812 0-2.777-2.252-5.029-5.028-5.029-1.032 0-1.996.314-2.792.849C20.184 2.653 17.475.967 14.37.967c-4.631 0-8.381 3.75-8.381 8.38 0 .142.005.283.01.425C3.066 10.804.96 13.6.96 16.89c0 4.165 3.379 7.543 7.543 7.543h19.276c3.703 0 6.705-3.001 6.705-6.704 0-3.243-2.305-5.95-5.364-6.569zm-7.553 3.216H18.14v5.867c0 .46-.377.838-.838.838h-2.514c-.461 0-.839-.377-.839-.838v-5.867h-3.425c-.75 0-1.121-.9-.592-1.43l5.52-5.52c.326-.326.86-.326 1.185 0l5.52 5.52c.53.53.152 1.43-.591 1.43z"/>
</svg>
