<svg xmlns="http://www.w3.org/2000/svg" width="25" height="24" viewBox="0 0 25 24">
    <g fill="none" fill-rule="evenodd">
        <g>
            <g>
                <g>
                    <g>
                        <path d="M0 0L24 0 24 24 0 24z" transform="translate(-31 -114) translate(31.228 114)"/>
                        <path fill="#2DA4DF" fill-rule="nonzero" d="M22 6c0-1.1-.9-2-2-2H4c-1.1 0-2 .9-2 2v12c0 1.1.9 2 2 2h16c1.1 0 2-.9 2-2V6zm-2 0l-8 5-8-5h16zm0 12H4V8l8 5 8-5v10z" transform="translate(-31 -114) translate(31.228 114)"/>
                    </g>
                </g>
            </g>
        </g>
    </g>
</svg>
