<svg xmlns="http://www.w3.org/2000/svg" width="31" height="26" viewBox="0 0 31 26">
    <g fill="none" fill-rule="evenodd">
        <g fill="#FFF">
            <g>
                <g>
                    <g>
                        <path d="M29.761.472c-1.214.737-2.556 1.273-3.99 1.56C24.63.782 22.996 0 21.188 0c-3.464 0-6.276 2.883-6.276 6.438 0 .506.054.995.162 1.466C9.855 7.636 5.229 5.075 2.13 1.175c-.54.955-.85 2.062-.85 3.241 0 2.233 1.109 4.204 2.794 5.358-1.028-.03-1.998-.323-2.846-.802v.078c0 3.121 2.165 5.724 5.04 6.314-.527.15-1.082.227-1.655.227-.405 0-.8-.04-1.182-.115.8 2.557 3.117 4.42 5.865 4.47-2.148 1.727-4.857 2.757-7.798 2.757-.507 0-1.008-.03-1.498-.089 2.778 1.824 6.08 2.89 9.625 2.89 11.551 0 17.865-9.809 17.865-18.318 0-.28-.004-.56-.015-.834 1.227-.908 2.292-2.041 3.13-3.333-1.124.512-2.335.858-3.605 1.014 1.297-.796 2.292-2.058 2.761-3.561" transform="translate(-660 -26) translate(151 24) translate(368) translate(141 2)"/>
                    </g>
                </g>
            </g>
        </g>
    </g>
</svg>
