<svg xmlns="http://www.w3.org/2000/svg" width="31" height="28" viewBox="0 0 31 28">
    <g fill="none" fill-rule="evenodd">
        <g fill="#FFF">
            <g>
                <g>
                    <g>
                        <path d="M6.635 8.788v18.617H.76V8.788h5.875zm16.054-.18c4.176 0 7.456 2.679 7.456 8.446v10.35h-6.662v-9.633c0-2.522-1.042-4.243-3.334-4.243-1.753 0-2.728 1.161-3.181 2.281-.17.402-.144.962-.144 1.522v10.074h-6.6s.085-17.065 0-18.617h6.6v2.922c.39-1.278 2.499-3.101 5.865-3.101zM3.589 0c2.168 0 3.5 1.39 3.543 3.227 0 1.804-1.375 3.233-3.584 3.233h-.042C1.379 6.46 0 5.036 0 3.232 0 1.393 1.42 0 3.589 0z" transform="translate(-589 -25) translate(151 24) translate(368) translate(70 1)"/>
                    </g>
                </g>
            </g>
        </g>
    </g>
</svg>
