<svg xmlns="http://www.w3.org/2000/svg" xmlns:xlink="http://www.w3.org/1999/xlink" width="86" height="86" viewBox="0 0 86 86">
    <defs>
        <filter id="xqs5x9ivsa" width="256.8%" height="256.8%" x="-46.5%" y="-57.7%" filterUnits="objectBoundingBox">
            <feOffset dx="9" dy="4" in="SourceAlpha" result="shadowOffsetOuter1"/>
            <feGaussianBlur in="shadowOffsetOuter1" result="shadowBlurOuter1" stdDeviation="6.5"/>
            <feColorMatrix in="shadowBlurOuter1" values="0 0 0 0 0 0 0 0 0 0 0 0 0 0 0 0 0 0 0.127868226 0"/>
        </filter>
        <path id="qn8nuj1zlb" d="M16.808 5.367l9.271 18.541c.741 1.482.14 3.284-1.341 4.025-.417.209-.876.317-1.342.317H4.854c-1.657 0-3-1.343-3-3 0-.466.109-.925.317-1.342l9.27-18.541c.742-1.482 2.544-2.083 4.026-1.342.58.29 1.051.761 1.341 1.342z"/>
    </defs>
    <g fill="none" fill-rule="evenodd">
        <g>
            <circle cx="43" cy="43" r="43" fill="#2DA4DF" opacity=".1"/>
            <circle cx="43" cy="43" r="35.833" fill="#2DA4DF" opacity=".2"/>
            <circle cx="43" cy="43" r="28.667" fill="#2DA4DF" opacity=".5"/>
            <g>
                <g transform="translate(34.75 28.875) rotate(90 14.125 14.125)">
                    <use fill="#000" filter="url(#xqs5x9ivsa)" xlink:href="#qn8nuj1zlb"/>
                    <use fill="#FFF" xlink:href="#qn8nuj1zlb"/>
                </g>
            </g>
        </g>
    </g>
</svg>
