<svg xmlns="http://www.w3.org/2000/svg" width="35" height="34" viewBox="0 0 35 34">
    <g fill="none" fill-rule="evenodd">
        <g fill="#2DA4DF">
            <g>
                <g>
                    <g>
                        <g>
                            <path d="M26.91 26.91c1.857 0 3.363 1.505 3.363 3.363 0 1.857-1.506 3.363-3.364 3.363-1.867 0-3.364-1.513-3.364-3.363 0-1.867 1.497-3.364 3.364-3.364M0 0h5.5l1.58 3.364h24.875c.928 0 1.681.753 1.681 1.681 0 .286-.084.572-.201.841l-6.021 10.882c-.572 1.026-1.682 1.732-2.944 1.732H11.94l-1.513 2.741-.05.202c0 .232.188.42.42.42h19.476v3.364H10.09c-1.867 0-3.364-1.513-3.364-3.363 0-.589.152-1.144.404-1.615l2.287-4.12L3.364 3.364H0V0m10.09 26.91c1.859 0 3.365 1.505 3.365 3.363 0 1.857-1.506 3.363-3.364 3.363-1.867 0-3.364-1.513-3.364-3.363 0-1.867 1.497-3.364 3.364-3.364m15.136-11.773l4.676-8.409H8.645l3.969 8.41h12.613z" transform="translate(-539.000000, -2979.000000) translate(198.500000, 2133.000000) translate(0.000000, 825.000000) translate(320.000000, 0.000000) translate(21.000000, 21.000000)"/>
                        </g>
                    </g>
                </g>
            </g>
        </g>
    </g>
</svg>
