<svg xmlns="http://www.w3.org/2000/svg" width="38" height="26" viewBox="0 0 38 26">
    <g fill="none" fill-rule="evenodd">
        <g fill="#2DA4DF" fill-rule="nonzero">
            <g>
                <g>
                    <g>
                        <g>
                            <path d="M18.589 7.604c-2.8 0-5.07 2.27-5.07 5.07 0 2.8 2.27 5.07 5.07 5.07 2.8 0 5.07-2.27 5.07-5.07 0-2.8-2.27-5.07-5.07-5.07m0 13.52c-4.667 0-8.45-3.783-8.45-8.45 0-4.666 3.783-8.45 8.45-8.45 4.666 0 8.45 3.784 8.45 8.45 0 4.667-3.784 8.45-8.45 8.45m0-21.124C10.139 0 2.923 5.256 0 12.674c2.923 7.419 10.14 12.674 18.589 12.674 8.45 0 15.665-5.255 18.588-12.674C34.254 5.256 27.038 0 18.59 0z" transform="translate(-537.000000, -2633.000000) translate(198.500000, 2133.000000) translate(0.000000, 475.000000) translate(320.000000, 0.000000) translate(19.000000, 25.405917)"/>
                        </g>
                    </g>
                </g>
            </g>
        </g>
    </g>
</svg>
