<svg xmlns="http://www.w3.org/2000/svg" width="35" height="34" viewBox="0 0 35 34">
    <g fill="none" fill-rule="evenodd">
        <g fill="#2DA4DF" fill-rule="nonzero">
            <g>
                <g>
                    <g>
                        <path d="M33.218 27.995l-6.558-6.304c-.296-.285-.697-.443-1.118-.443H24.47c1.815-2.232 2.894-5.04 2.894-8.095C27.364 5.887 21.24 0 13.682 0 6.124 0 0 5.887 0 13.153c0 7.267 6.124 13.154 13.682 13.154 3.177 0 6.098-1.037 8.42-2.783v1.031c0 .405.164.79.46 1.075l6.558 6.305c.619.595 1.618.595 2.23 0l1.862-1.79c.618-.594.618-1.555.006-2.15zm-19.536-6.747c-4.65 0-8.42-3.617-8.42-8.095 0-4.47 3.763-8.094 8.42-8.094 4.65 0 8.42 3.617 8.42 8.094 0 4.471-3.763 8.095-8.42 8.095z" transform="translate(-765.000000, -1337.000000) translate(164.500000, 1337.000000) translate(600.639449, 0.000000) translate(0.025000, 0.833333)"/>
                    </g>
                </g>
            </g>
        </g>
    </g>
</svg>
