<svg xmlns="http://www.w3.org/2000/svg" width="38" height="38" viewBox="0 0 38 38">
    <g fill="none" fill-rule="evenodd">
        <g fill="#2DA4DF">
            <g>
                <g>
                    <g>
                        <g>
                            <path d="M13.18 20.46l2.86 2.86-9.125 9.124h7.28V36.5H0V22.306h4.056v7.28l9.125-9.126m2.859-7.28l-2.86 2.86-9.124-9.125v7.28H0V0h14.194v4.056h-7.28l9.126 9.125m7.28 7.28l9.124 9.124v-7.28H36.5V36.5H22.306v-4.056h7.28L20.46 23.32l2.86-2.859m-2.86-7.28l9.125-9.124h-7.28V0H36.5v14.194h-4.056v-7.28L23.32 16.04l-2.859-2.86z" transform="translate(-538.000000, -2802.000000) translate(198.500000, 2133.000000) translate(0.000000, 650.000000) translate(320.000000, 0.000000) translate(19.750000, 19.750000)"/>
                        </g>
                    </g>
                </g>
            </g>
        </g>
    </g>
</svg>
