<?xml version="1.0" encoding="UTF-8"?>
<svg width="53px" height="67px" viewBox="0 0 53 67" version="1.1" xmlns="http://www.w3.org/2000/svg" xmlns:xlink="http://www.w3.org/1999/xlink">
    <!-- Generator: sketchtool 64 (101010) - https://sketch.com -->
    <title>FE1AB781-C6BD-499F-9756-943FC8862D57</title>
    <desc>Created with sketchtool.</desc>
    <g id="Matching-data" stroke="none" stroke-width="1" fill="none" fill-rule="evenodd">
        <g id="Landing-page_matching-data_expanded" transform="translate(-350.000000, -646.000000)" fill="#2DA4DF" fill-rule="nonzero">
            <g id="Matching-data-search" transform="translate(166.000000, 433.000000)">
                <g id="Sample-area" transform="translate(16.000000, 178.000000)">
                    <g id="Icons/File/File-upload" transform="translate(168.514019, 35.000000)">
                        <path d="M24.284749,14.7443119 L24.284749,-1.29026592e-13 L2.6019374,-1.29026592e-13 C1.16003042,-1.29026592e-13 5.47250718e-13,1.16003042 5.47250718e-13,2.6019374 L5.47250718e-13,52.9060604 C5.47250718e-13,54.3479674 1.16003042,55.5079978 2.6019374,55.5079978 L39.0290609,55.5079978 C40.4709679,55.5079978 41.6309983,54.3479674 41.6309983,52.9060604 L41.6309983,17.3462493 L26.8866864,17.3462493 C25.4556209,17.3462493 24.284749,16.1753775 24.284749,14.7443119 Z M41.6309983,13.2156737 L41.6309983,13.8769994 L27.7539989,13.8769994 L27.7539989,-1.29026592e-13 L28.4153246,-1.29026592e-13 C29.1091746,-1.29026592e-13 29.7705004,0.271035145 30.2583636,0.758898407 L40.8720999,11.3834761 C41.3599632,11.8713394 41.6309983,12.5326651 41.6309983,13.2156737 Z" id="Shape"></path>
                        <g id="Icons/Action/Upload" transform="translate(33.562617, 47.901869)" stroke="#FFFFFF" stroke-width="3">
                            <g id="download-copy-2" transform="translate(9.079439, 9.392523) rotate(-180.000000) translate(-9.079439, -9.392523) translate(0.000000, -0.000000)">
                                <path d="M11.1235889,-1.5 L7.04039361,-1.5 C6.29288362,-1.5 5.62175254,-1.20601461 5.13532127,-0.739701946 C4.62552637,-0.250991966 4.31543503,0.426246898 4.31543503,1.17429478 L4.31543503,7.8943582 L1.33412822,7.8943582 C0.803740499,7.8943582 0.339684418,8.04821516 -0.040967291,8.29202346 C-0.468754297,8.56602203 -0.793006038,8.95843792 -0.984958772,9.40346382 C-1.18258593,9.86164538 -1.23977902,10.3738695 -1.13606617,10.8713528 C-1.04193161,11.3228915 -0.817533697,11.7679785 -0.423566298,12.1456516 L7.35017204,19.5929781 C7.82638993,20.0494999 8.45367239,20.2850467 9.08454325,20.2850467 C9.7154141,20.2850467 10.3426966,20.0494999 10.8192698,19.5926376 L18.5828003,12.1453107 C18.9764122,11.7679785 19.2008101,11.3228915 19.2949447,10.8713528 C19.3986575,10.3738695 19.3414644,9.86164538 19.1438373,9.40346382 C18.9518845,8.95843792 18.6276328,8.56602203 18.1998458,8.29202346 C17.8191941,8.04821516 17.355138,7.8943582 16.8247503,7.8943582 L13.8485475,7.8943582 L13.8485475,1.17429478 C13.8485475,0.426246898 13.5384561,-0.250991966 13.0286612,-0.739701946 C12.54223,-1.20601461 11.8710989,-1.5 11.1235889,-1.5 Z" id="Shape"></path>
                            </g>
                        </g>
                    </g>
                </g>
            </g>
        </g>
    </g>
</svg>