<svg xmlns="http://www.w3.org/2000/svg" width="30" height="30" viewBox="0 0 30 30">
    <g fill="none" fill-rule="evenodd">
        <g fill="#FFF">
            <g>
                <g>
                    <g>
                        <path d="M30 28.344c0 .914-.742 1.656-1.656 1.656h-7.645V18.382h3.9l.584-4.528h-4.484v-2.89c0-1.31.364-2.204 2.244-2.204h2.397V4.71c-.415-.055-1.837-.179-3.493-.179-3.457 0-5.823 2.11-5.823 5.985v3.338h-3.91v4.528h3.91V30H1.656C.74 30 0 29.258 0 28.344V1.656C0 .741.741 0 1.656 0h26.688c.914 0 1.655.741 1.655 1.656v26.688" transform="translate(-519 -24) translate(151 24) translate(368)"/>
                    </g>
                </g>
            </g>
        </g>
    </g>
</svg>
