<svg xmlns="http://www.w3.org/2000/svg" width="20" height="20" viewBox="0 0 20 20">
    <path fill="#2DA4DF" d="M10 0C4.478 0 0 4.48 0 10c0 5.524 4.478 10 10 10s10-4.476 10-10c0-5.52-4.478-10-10-10zm0 4.435c.935 0 1.694.759 1.694 1.694 0 .935-.759 1.694-1.694 1.694-.935 0-1.694-.759-1.694-1.694 0-.935.759-1.694 1.694-1.694zm2.258 10.242c0 .268-.217.484-.484.484H8.226c-.267 0-.484-.216-.484-.484v-.967c0-.268.217-.484.484-.484h.484v-2.58h-.484c-.267 0-.484-.217-.484-.485v-.967c0-.268.217-.484.484-.484h2.58c.268 0 .484.216.484.484v4.032h.484c.267 0 .484.216.484.484v.967z"/>
</svg>
