<svg xmlns="http://www.w3.org/2000/svg" width="34" height="20" viewBox="0 0 34 20">
    <g fill="none" fill-rule="evenodd">
        <g>
            <g>
                <g>
                    <g>
                        <g fill="#FFF" stroke="#E4E4EB" transform="translate(-1071 -870) translate(989 548) translate(82 322)">
                            <rect width="33" height="19" x=".5" y=".5" rx="4"/>
                        </g>
                        <g fill-rule="nonzero">
                            <path fill="#27346A" d="M8.51.904C7.964.271 6.977 0 5.714 0H2.048c-.258 0-.477.19-.518.45L.004 10.294c-.03.194.117.37.31.37h2.264l.568-3.666-.018.115c.04-.26.259-.45.517-.45H4.72c2.112 0 3.766-.873 4.25-3.397.014-.075.026-.148.037-.219-.06-.032-.06-.032 0 0 .144-.933 0-1.568-.497-2.143" transform="translate(-1071 -870) translate(989 548) translate(82 322) translate(12 4)"/>
                            <path fill="#27346A" d="M4.012 2.711c.062-.03.13-.045.198-.045h2.873c.34 0 .658.022.948.07.081.013.162.029.242.047.114.026.226.057.337.094.142.048.275.104.397.17.144-.933 0-1.568-.497-2.143C7.963.271 6.977 0 5.714 0H2.048c-.258 0-.477.191-.518.45L.004 10.294c-.03.194.117.37.31.37h2.264L3.757 3.06c.023-.152.119-.282.255-.349z" transform="translate(-1071 -870) translate(989 548) translate(82 322) translate(12 4)"/>
                            <path fill="#2790C3" d="M8.97 3.266C8.486 5.79 6.832 6.663 4.72 6.663H3.644c-.258 0-.476.19-.516.45l-.707 4.558c-.026.17.103.324.272.324h1.908c.225 0 .417-.167.453-.394l.018-.099.36-2.317.023-.128c.035-.227.227-.394.453-.394h.286c1.847 0 3.294-.764 3.717-2.972.177-.922.085-1.693-.382-2.234-.141-.164-.317-.3-.522-.41-.011.072-.023.144-.037.219z" transform="translate(-1071 -870) translate(989 548) translate(82 322) translate(12 4)"/>
                            <path fill="#1F264F" d="M8.501 2.842c-.075-.022-.151-.042-.228-.059-.08-.018-.16-.034-.242-.047-.29-.048-.607-.07-.948-.07H4.21c-.068 0-.136.015-.198.046-.136.066-.232.196-.255.348l-.61 3.938-.018.115c.04-.26.258-.45.516-.45H4.72c2.113 0 3.767-.873 4.25-3.397.014-.075.026-.147.037-.219-.122-.065-.254-.122-.397-.17l-.109-.035" transform="translate(-1071 -870) translate(989 548) translate(82 322) translate(12 4)"/>
                        </g>
                    </g>
                </g>
            </g>
        </g>
    </g>
</svg>
