<svg xmlns="http://www.w3.org/2000/svg" width="21" height="20" viewBox="0 0 21 20">
    <path fill="#8F90A6" d="M20.517 17.291l-4.05-3.894c-.183-.176-.431-.273-.691-.273h-.662c1.12-1.38 1.787-3.113 1.787-5C16.901 3.636 13.12 0 8.451 0 3.782 0 0 3.636 0 8.124s3.782 8.124 8.45 8.124c1.963 0 3.767-.64 5.201-1.718v.636c0 .25.102.489.284.664l4.051 3.895c.382.367 1 .367 1.377 0l1.15-1.106c.382-.367.382-.96.004-1.328zM8.451 13.124c-2.873 0-5.2-2.234-5.2-5 0-2.761 2.323-5 5.2-5 2.872 0 5.2 2.235 5.2 5 0 2.762-2.324 5-5.2 5z"/>
</svg>
