<svg xmlns="http://www.w3.org/2000/svg" width="21" height="24" viewBox="0 0 21 24">
    <path fill="#00B7C4" d="M20.485 3.661v1.997c0 1.76-4.452 3.195-9.94 3.195C5.06 8.853.608 7.417.608 5.658V3.66c0-1.76 4.452-3.194 9.939-3.194s9.939 1.435 9.939 3.194zm0 4.493v4.492c0 1.76-4.452 3.195-9.94 3.195-5.486 0-9.938-1.435-9.938-3.195V8.154c2.135 1.447 6.044 2.121 9.939 2.121 3.895 0 7.803-.674 9.939-2.121zm0 6.988v4.492c0 1.76-4.452 3.195-9.94 3.195-5.486 0-9.938-1.435-9.938-3.195v-4.492c2.135 1.448 6.044 2.121 9.939 2.121 3.895 0 7.803-.673 9.939-2.121z"/>
</svg>
