<svg xmlns="http://www.w3.org/2000/svg" width="24" height="24" viewBox="0 0 24 24">
    <g fill="none" fill-rule="evenodd">
        <g fill="#FFF" fill-rule="nonzero">
            <g>
                <g>
                    <path d="M19.2 19.2c1.325 0 2.4 1.075 2.4 2.4S20.525 24 19.2 24c-1.332 0-2.4-1.08-2.4-2.4 0-1.332 1.068-2.4 2.4-2.4M0 0h3.924l1.128 2.4H22.8c.663 0 1.2.537 1.2 1.2 0 .204-.06.408-.144.6l-4.296 7.764c-.408.732-1.2 1.236-2.1 1.236H8.52l-1.08 1.956-.036.144c0 .166.134.3.3.3H21.6V18H7.2c-1.332 0-2.4-1.08-2.4-2.4 0-.42.108-.816.288-1.152l1.632-2.94L2.4 2.4H0V0m7.2 19.2c1.325 0 2.4 1.075 2.4 2.4S8.525 24 7.2 24c-1.332 0-2.4-1.08-2.4-2.4 0-1.332 1.068-2.4 2.4-2.4M18 10.8l3.336-6H6.168L9 10.8h9z" transform="translate(-1250 -28) translate(1250 28)"/>
                </g>
            </g>
        </g>
    </g>
</svg>
