<svg xmlns="http://www.w3.org/2000/svg" width="25" height="25" viewBox="0 0 25 25">
    <g fill="none" fill-rule="evenodd">
        <path fill="#FFF" d="M21.75 0H2.25C1.008 0 0 1.344 0 3v18c0 1.656 1.008 3 2.25 3h19.5c1.242 0 2.25-1.344 2.25-3V3c0-1.656-1.008-3-2.25-3z" transform="translate(.96 .2)"/>
        <path fill="#E65765" fill-rule="nonzero" d="M11.153 13.22h1.694L12 10.78l-.847 2.44zM21.75 0H2.25C1.008 0 0 1.344 0 3v18c0 1.656 1.008 3 2.25 3h19.5c1.242 0 2.25-1.344 2.25-3V3c0-1.656-1.008-3-2.25-3zm-6.332 16.4h-.776c-.312 0-.59-.198-.693-.493l-.338-.974H10.39l-.339.974c-.102.295-.38.493-.693.493h-.776c-.505 0-.858-.497-.693-.974l2.461-7.087c.154-.443.57-.739 1.04-.739h1.221c.469 0 .886.297 1.04.74l2.46 7.086c.165.477-.188.974-.693.974z" transform="translate(.96 .2)"/>
    </g>
</svg>
