<svg width="27" height="73" viewBox="0 0 27 73" fill="none" xmlns="http://www.w3.org/2000/svg">
<path d="M13.5 44V72.487" stroke="#2DA4DF" stroke-dasharray="4 4"/>
<path d="M27 13.5C27 6.04416 20.9558 0 13.5 0C6.04416 0 0 6.04416 0 13.5C0 20.9558 6.04416 27 13.5 27C20.9558 27 27 20.9558 27 13.5Z" fill="white"/>
<path opacity="0.184" d="M27 13.5C27 6.04416 20.9558 0 13.5 0C6.04416 0 0 6.04416 0 13.5C0 20.9558 6.04416 27 13.5 27C20.9558 27 27 20.9558 27 13.5Z" fill="#2DA4DF"/>
<path d="M17 13.5C17 11.567 15.433 10 13.5 10C11.567 10 10 11.567 10 13.5C10 15.433 11.567 17 13.5 17C15.433 17 17 15.433 17 13.5Z" fill="#2DA4DF"/>
</svg>
