<svg xmlns="http://www.w3.org/2000/svg" width="34" height="20" viewBox="0 0 34 20">
    <g fill="none" fill-rule="evenodd">
        <g>
            <g>
                <g>
                    <g>
                        <g fill="#FFF" stroke="#E4E4EB" transform="translate(-1111 -870) translate(989 548) translate(82 322) translate(40)">
                            <rect width="33" height="19" x=".5" y=".5" rx="4"/>
                        </g>
                        <g fill="#359AD5" fill-rule="nonzero">
                            <path d="M23.023 3.796c-.51 0-.456.626-.477 1.294h.848c0-.753 0-1.294-.371-1.294zm-.477 2.386c0 .604.297.72.795.72.573 0 1.346-.169 1.643-.222v1.463c-.233.085-.943.287-1.643.287-1.262 0-2.8-.202-2.8-2.895 0-2.375 1.21-2.937 2.482-2.937 1.304 0 2.248.668 2.248 2.916v.668h-2.725zm-4.974-2.1c-.117 0-.35.096-.477.17v2.714c.095.032.265.054.34.054.35 0 .561-.297.561-1.538 0-1.262-.095-1.4-.424-1.4zm.233 4.348c-.254 0-.52-.074-.71-.117v2.025H15.08V2.704h1.633l.297.35c.307-.276.742-.456 1.198-.456.827 0 1.803.233 1.803 2.884 0 2.905-1.464 2.948-2.206 2.948zm-4.581-6.415c-.562 0-.997-.456-.997-1.008 0-.551.435-1.007.997-1.007s.997.456.997 1.007c0 .552-.435 1.008-.997 1.008zm-1.007 6.309v-5.62h2.014v5.62h-2.014zm-1.22-4.04c-.318 0-.562.127-.668.19v3.85H8.314v-5.62h1.601l.297.54c.117-.35.435-.646.902-.646.318 0 .53.063.625.116V4.39c-.201-.053-.466-.106-.742-.106zM7.169 6.903c.127 0 .572-.064.72-.085v1.431c-.307.075-.986.18-1.43.18-.573 0-1.644-.063-1.644-1.621V3.987h-.743V2.704h.743l.254-1.272 1.76-.425v1.697h1.06l-.264 1.283h-.796v2.46c0 .382.117.456.34.456zM1.962 4.326c0 .223.148.297.498.456l.212.096C3.171 5.1 3.86 5.46 3.86 6.52c0 1.697-1.262 1.909-2.163 1.909-.584 0-1.199-.138-1.612-.265V6.712c.36.096.986.244 1.262.244.307 0 .54-.042.54-.318 0-.212-.148-.308-.477-.456l-.254-.117C.679 5.843 0 5.461 0 4.432c0-1.505 1.177-1.834 2.163-1.834.742 0 1.23.17 1.485.265v1.41c-.297-.095-.902-.222-1.262-.222-.244 0-.424.063-.424.275z" transform="translate(-1111 -870) translate(989 548) translate(82 322) translate(40) translate(4 4.5)"/>
                        </g>
                    </g>
                </g>
            </g>
        </g>
    </g>
</svg>
