<svg xmlns="http://www.w3.org/2000/svg" width="25" height="25" viewBox="0 0 25 25">
    <g fill="none">
        <path fill="#FC0" d="M24 3v18c0 1.657-1.007 3-2.25 3H2.25C1.007 24 0 22.657 0 21V3c0-1.657 1.007-3 2.25-3h19.5C22.993 0 24 1.343 24 3z" transform="translate(.96 .2)"/>
        <path fill="#FFF" d="M14.756 13.787c0-1.748-1.242-2.833-3.24-2.833H9.637c-.217 0-.393.16-.393.355v4.978c0 .197.176.356.393.356h1.879c1.998 0 3.24-1.094 3.24-2.856z" transform="translate(.96 .2)"/>
        <path fill="#FFF" d="M14.232 9.836c0-1.53-1.124-2.479-2.932-2.479H9.6c-.196 0-.356.14-.356.311v4.356c0 .172.16.311.356.311h1.7c1.808 0 2.932-.958 2.932-2.499z" transform="translate(.96 .2)"/>
        <path fill="#FC0" d="M11.332 12.335h-.517v2.927h.517c1.061 0 1.646-.524 1.646-1.475 0-.955-.623-1.452-1.646-1.452zM11.246 8.565h-.43v2.562h.43c.883 0 1.369-.459 1.369-1.291 0-.836-.519-1.27-1.369-1.27z" transform="translate(.96 .2)"/>
    </g>
</svg>
