<svg xmlns="http://www.w3.org/2000/svg" width="18" height="20" viewBox="0 0 18 20">
    <g fill="none" fill-rule="evenodd">
        <g fill="#2DA4DF" fill-rule="nonzero">
            <g>
                <path d="M1.25 18.125c0 1.036.84 1.875 1.875 1.875h11.25c1.036 0 1.875-.84 1.875-1.875V5h-15v13.125zm10.625-10c0-.345.28-.625.625-.625s.625.28.625.625v8.75c0 .345-.28.625-.625.625s-.625-.28-.625-.625v-8.75zm-3.75 0c0-.345.28-.625.625-.625s.625.28.625.625v8.75c0 .345-.28.625-.625.625s-.625-.28-.625-.625v-8.75zm-3.75 0c0-.345.28-.625.625-.625s.625.28.625.625v8.75c0 .345-.28.625-.625.625s-.625-.28-.625-.625v-8.75zm12.5-6.875h-4.688L11.82.52C11.662.2 11.336 0 10.98 0H6.516c-.356-.001-.68.2-.836.52l-.367.73H.625C.28 1.25 0 1.53 0 1.875v1.25c0 .345.28.625.625.625h16.25c.345 0 .625-.28.625-.625v-1.25c0-.345-.28-.625-.625-.625z" transform="translate(-918 -587) translate(918.5 587)"/>
            </g>
        </g>
    </g>
</svg>
