<svg xmlns="http://www.w3.org/2000/svg" width="30" height="31" viewBox="0 0 30 31">
    <path fill="#2DA4DF" stroke="#FFF" stroke-width="3" d="M11.735 32.5h6.521c.95 0 1.804-.372 2.423-.965.642-.616 1.034-1.468 1.034-2.41V17.497h5.656c.66 0 1.24-.19 1.713-.494.53-.339.931-.824 1.169-1.375.243-.564.314-1.194.187-1.807-.117-.557-.395-1.105-.881-1.571L17.142.356c-.59-.566-1.368-.856-2.15-.856-.782 0-1.56.29-2.15.857L.441 12.25c-.485.466-.763 1.014-.88 1.571-.127.613-.056 1.243.187 1.807.238.55.64 1.036 1.169 1.375.474.304 1.052.494 1.713.494h5.648v11.628c0 .942.392 1.794 1.034 2.41.618.593 1.472.965 2.422.965z"/>
</svg>
