<svg xmlns="http://www.w3.org/2000/svg" width="30" height="31" viewBox="0 0 30 31">
    <g fill="none" fill-rule="evenodd">
        <g fill="#2DA4DF">
            <g>
                <g>
                    <g>
                        <g>
                            <path d="M15 3.563c2.175 0 3.938 1.762 3.938 3.937S17.175 11.438 15 11.438c-2.175 0-3.938-1.763-3.938-3.938 0-2.175 1.763-3.938 3.938-3.938zm0 16.875c5.569 0 11.438 2.737 11.438 3.937v2.063H3.563v-2.063c0-1.2 5.868-3.938 11.437-3.938zM15 0c-4.144 0-7.5 3.356-7.5 7.5S10.856 15 15 15s7.5-3.356 7.5-7.5S19.144 0 15 0zm0 16.875c-5.006 0-15 2.512-15 7.5V30h30v-5.625c0-4.988-9.994-7.5-15-7.5z" transform="translate(-379 -878) translate(0 763) translate(206 109.5) translate(173) translate(0 6)"/>
                        </g>
                    </g>
                </g>
            </g>
        </g>
    </g>
</svg>
