<svg xmlns="http://www.w3.org/2000/svg" width="24" height="24" viewBox="0 0 24 24">
    <g fill="none" fill-rule="evenodd">
        <g fill="#FFF" fill-rule="nonzero">
            <g>
                <g>
                    <path d="M11.824 0c3.265 0 5.911 2.647 5.911 5.912s-2.646 5.912-5.911 5.912c-3.265 0-5.912-2.647-5.912-5.912S8.559 0 11.824 0m0 2.956c-1.633 0-2.956 1.323-2.956 2.956 0 1.632 1.323 2.956 2.956 2.956 1.632 0 2.955-1.324 2.955-2.956 0-1.633-1.323-2.956-2.955-2.956m0 10.345c3.946 0 11.823 1.966 11.823 5.912v4.434H0v-4.434c0-3.946 7.877-5.912 11.824-5.912m0 2.809c-4.39 0-9.016 2.157-9.016 3.103v1.626H20.84v-1.626c0-.946-4.626-3.103-9.015-3.103z" transform="translate(-1186 -28) translate(1186 28)"/>
                </g>
            </g>
        </g>
    </g>
</svg>
