<svg xmlns="http://www.w3.org/2000/svg" width="24" height="24" viewBox="0 0 24 24">
    <g fill="none" fill-rule="evenodd">
        <g>
            <g>
                <path fill="#FFF" fill-rule="nonzero" d="M23 11.995L20.56 9.215 20.9 5.535 17.29 4.715 15.4 1.535 12 2.995 8.6 1.535 6.71 4.715 3.1 5.525 3.44 9.205 1 11.995 3.44 14.775 3.1 18.465 6.71 19.285 8.6 22.465 12 20.995 15.4 22.455 17.29 19.275 20.9 18.455 20.56 14.775 23 11.995" transform="translate(-190 -1362) translate(190 1362)"/>
                <path fill="#FFF" fill-rule="nonzero" d="M10 16.995L6 12.995 7.41 11.585 10 14.165 16.59 7.575 18 8.995z" transform="translate(-190 -1362) translate(190 1362)"/>
                <path d="M0 0H24V24H0z" transform="translate(-190 -1362) translate(190 1362)"/>
                <path fill="#093" fill-rule="nonzero" d="M23 11.99L20.56 9.2l.34-3.69-3.61-.82L15.4 1.5 12 2.96 8.6 1.5 6.71 4.69 3.1 5.5l.34 3.7L1 11.99l2.44 2.79-.34 3.7 3.61.82 1.89 3.2 3.4-1.47 3.4 1.46 1.89-3.19 3.61-.82-.34-3.69 2.44-2.8zm-3.95 1.48l-.56.65.08.85.18 1.95-1.9.43-.84.19-.44.74-.99 1.68-1.78-.77-.8-.34-.79.34-1.78.77-.99-1.67-.44-.74-.84-.19-1.9-.43.18-1.96.08-.85-.56-.65L3.67 12l1.29-1.48.56-.65-.09-.86-.18-1.94 1.9-.43.84-.19.44-.74.99-1.68 1.78.77.8.34.79-.34 1.78-.77.99 1.68.44.74.84.19 1.9.43-.18 1.95-.08.85.56.65 1.29 1.47-1.28 1.48z" transform="translate(-190 -1362) translate(190 1362)"/>
                <path fill="#093" fill-rule="nonzero" d="M10.09 13.75L7.77 11.42 6.29 12.91 10.09 16.72 17.43 9.36 15.95 7.87z" transform="translate(-190 -1362) translate(190 1362)"/>
            </g>
        </g>
    </g>
</svg>
