<svg xmlns="http://www.w3.org/2000/svg" width="85" height="84" viewBox="0 0 85 84">
    <g fill="none" fill-rule="evenodd">
        <g>
            <g>
                <g fill="#D62591" opacity=".205" transform="translate(-109 -24) translate(109.5 24)">
                    <rect width="84" height="84" rx="4"/>
                </g>
                <g>
                    <path d="M0 0L44 0 44 44 0 44z" transform="translate(-109 -24) translate(109.5 24) translate(20 20)"/>
                    <path fill="#C39" fill-rule="nonzero" d="M10.333 8c-1.726 0-3.11 1.4-3.11 3.111V32.89c0 1.718 1.392 3.111 3.11 3.111h21.778c1.718 0 3.111-1.393 3.111-3.111v-3.547c.918-.544 1.556-1.524 1.556-2.675v-9.334c0-1.15-.638-2.13-1.556-2.675V11.11C35.222 9.393 33.83 8 32.112 8H10.332m0 3.111h21.778v3.111h-9.333c-1.718 0-3.111 1.393-3.111 3.111v9.334c0 1.718 1.393 3.11 3.11 3.11h9.334v3.112H10.333V11.11m12.445 6.222h10.889v9.334h-10.89v-9.334m4.667 2.334c-1.288 0-2.333 1.044-2.333 2.333 0 1.289 1.045 2.333 2.333 2.333 1.29 0 2.334-1.044 2.334-2.333 0-1.289-1.045-2.333-2.334-2.333z" transform="translate(-109 -24) translate(109.5 24) translate(20 20)"/>
                </g>
            </g>
        </g>
    </g>
</svg>
